<svg xmlns="http://www.w3.org/2000/svg" viewBox="0 0 760 230" width="760" height="230" role="img" aria-label="Decomp progress by region: decompiled-to-C vs byte-matched"><defs><style>text{font-family:-apple-system,BlinkMacSystemFont,"Segoe UI",Roboto,Helvetica,Arial,sans-serif;}.title{font-size:18px;font-weight:600;fill:#f5f5f5;}.reg{font-size:14px;font-weight:700;fill:#f5f5f5;}.pct{font-size:13px;fill:#d8dde2;}.lg{font-size:12px;fill:#b9c0c7;}</style></defs><rect x="0" y="0" width="760" height="230" rx="8" fill="#1f2429"/><text x="22" y="29" class="title">Decompilation progress</text><text x="22" y="76" class="reg">EUR</text><rect x="92" y="63" width="468" height="16" rx="8" fill="#3a4048"/><rect x="92" y="63" width="416.7" height="16" rx="8" fill="#2b6cb0"/><rect x="92" y="63" width="29.7" height="16" rx="8" fill="#3fb950"/><text x="572" y="76" class="pct">C 6.4% · matched 89%</text><text x="22" y="126" class="reg">USA</text><rect x="92" y="113" width="468" height="16" rx="8" fill="#3a4048"/><rect x="92" y="113" width="70.0" height="16" rx="8" fill="#2b6cb0"/><rect x="92" y="113" width="26.4" height="16" rx="8" fill="#3fb950"/><text x="572" y="126" class="pct">C 5.6% · matched 15%</text><text x="22" y="176" class="reg">JPN</text><rect x="92" y="163" width="468" height="16" rx="8" fill="#3a4048"/><rect x="92" y="163" width="64.2" height="16" rx="8" fill="#2b6cb0"/><rect x="92" y="163" width="26.4" height="16" rx="8" fill="#3fb950"/><text x="572" y="176" class="pct">C 5.6% · matched 14%</text><rect x="22" y="205" width="11" height="11" rx="2" fill="#3fb950"/><text x="39" y="214" class="lg">decompiled to C</text><rect x="172" y="205" width="11" height="11" rx="2" fill="#2b6cb0"/><text x="189" y="214" class="lg">byte-matched (incl. .s assembly)</text></svg>